#N canvas 376 230 888 428 10;
#X floatatom 19 63 5 0 0 0 - - -;
#X text 78 -5 args are (pin number \, mode (0=OUTPUT \, 1=INPUT) \,
and default value, f 25;
#X text -83 -16 In OUTPUT mode \, change the number box to send the
value out the pin, f 27;
#X obj 19 41 tgl 15 0 empty empty empty 17 7 0 10 -262144 -1 -1 0 1
;
#X floatatom -80 223 5 0 0 0 - - -;
#X obj -80 171 bng 15 250 50 0 empty empty empty 17 7 0 10 -262144
-1 -1;
#X obj -51 158 tgl 15 0 empty empty empty 17 7 0 10 -262144 -1 -1 0
1;
#X obj -51 178 metro 20;
#X obj 19 84 wiringPi_gpio 3 0 0;
#X floatatom 150 68 5 0 0 0 - - -;
#X obj 150 46 tgl 15 0 empty empty empty 17 7 0 10 -262144 -1 -1 0
1;
#X obj 150 89 wiringPi_gpio 4 0 0;
#X floatatom 276 73 5 0 0 0 - - -;
#X obj 276 51 tgl 15 0 empty empty empty 17 7 0 10 -262144 -1 -1 0
1;
#X obj 276 94 wiringPi_gpio 5 0 0;
#X floatatom 412 79 5 0 0 0 - - -;
#X obj 412 57 tgl 15 0 empty empty empty 17 7 0 10 -262144 -1 -1 0
1;
#X obj 412 100 wiringPi_gpio 6 0 0;
#X obj -80 201 wiringPi_gpio 2 1 0;
#X floatatom 546 90 5 0 0 0 - - -;
#X obj 546 49 tgl 15 0 empty empty empty 17 7 0 10 -262144 -1 -1 0
1;
#X obj 546 111 wiringPi_gpio 23 0 0;
#X connect 0 0 8 0;
#X connect 3 0 0 0;
#X connect 5 0 18 0;
#X connect 6 0 7 0;
#X connect 7 0 18 0;
#X connect 9 0 11 0;
#X connect 10 0 9 0;
#X connect 12 0 14 0;
#X connect 13 0 12 0;
#X connect 15 0 17 0;
#X connect 16 0 15 0;
#X connect 18 0 4 0;
#X connect 19 0 21 0;
#X connect 20 0 19 0;
