#N canvas 621 81 650 663 10;
#X floatatom 125 -7 5 0 0 0 - - -;
#X floatatom 185 611 5 0 0 0 - - -;
#X obj 185 588 env~ 16384;
#X floatatom 122 444 5 0 0 0 - - -;
#X obj -7 218 noise~;
#X floatatom 138 217 5 0 0 0 - - -;
#X floatatom 110 179 5 0 0 0 - - -;
#X obj 109 9 pow 2;
#X obj 40 239 lop~ 3;
#X obj 17 281 vcf~ 11;
#X obj 55 537 *~ 0.8;
#X obj 56 498 *~;
#X obj 217 541 lop~ 3;
#X floatatom 298 546 5 0 0 0 - - -;
#X obj 333 472 expr 1 - $f1;
#X floatatom 320 447 5 0 0 0 - - -;
#X floatatom 343 502 5 0 0 0 - - -;
#X obj 66 384 *~;
#X obj 123 289 osc~;
#X obj 285 234 lop~ 3;
#X obj 392 192 expr 1 - $f1;
#X floatatom 379 167 5 0 0 0 - - -;
#X floatatom 402 222 5 0 0 0 - - -;
#X obj 120 342 *~;
#X obj 208 356 lop~ 3;
#X obj 10 384 *~;
#X obj -87 419 lop~ 3;
#X obj 285 200 * 12;
#X obj 68 -45 r pedal;
#X obj 226 404 r pedal;
#X obj 226 427 expr 1-$f1;
#X obj 285 124 r pedal;
#X obj 208 279 r pedal;
#X obj 354 46 inlet;
#X obj 354 87 switch~;
#X obj 437 45 r som-set;
#X obj 437 68 == 3;
#X obj 437 91 s nimbus-set;
#X obj 210 330 pow 4;
#X obj -89 303 r pedal;
#X obj -88 331 expr 1-$f1;
#X obj 5 674 throw~ som;
#X obj 347 397 * 0.01, f 9;
#X floatatom 335 362 5 0 0 0 - - -;
#X obj 226 480 * 0.84;
#X obj 226 503 + 0.16;
#X floatatom 12 22 5 0 0 0 - - -;
#X floatatom -86 234 12 0 0 0 - - -;
#X floatatom -71 151 12 0 0 0 - - -;
#X obj 38 89 + 40;
#X obj 38 112 int;
#X obj 25 145 mtof~;
#X obj -72 176 mtof;
#X obj -61 109 f;
#X obj -48 34 tgl 15 0 empty empty empty 17 7 0 10 -262144 -1 -1 1
1;
#X obj -54 66 metro 100;
#X obj 36 60 * 87;
#X connect 2 0 1 0;
#X connect 3 0 10 1;
#X connect 4 0 9 0;
#X connect 5 0 9 2;
#X connect 6 0 8 1;
#X connect 6 0 26 1;
#X connect 8 0 9 1;
#X connect 9 0 17 0;
#X connect 9 0 25 0;
#X connect 10 0 2 0;
#X connect 10 0 41 0;
#X connect 11 0 10 0;
#X connect 12 0 11 1;
#X connect 14 0 16 0;
#X connect 15 0 14 0;
#X connect 15 0 44 1;
#X connect 16 0 45 1;
#X connect 17 0 11 0;
#X connect 18 0 23 0;
#X connect 19 0 18 0;
#X connect 20 0 22 0;
#X connect 21 0 20 0;
#X connect 21 0 27 1;
#X connect 23 0 17 1;
#X connect 24 0 23 1;
#X connect 25 0 11 0;
#X connect 26 0 25 1;
#X connect 27 0 19 0;
#X connect 28 0 0 0;
#X connect 28 0 56 0;
#X connect 29 0 30 0;
#X connect 30 0 44 0;
#X connect 31 0 27 0;
#X connect 32 0 38 0;
#X connect 33 0 34 0;
#X connect 35 0 36 0;
#X connect 36 0 37 0;
#X connect 38 0 24 0;
#X connect 39 0 40 0;
#X connect 40 0 26 0;
#X connect 42 0 15 0;
#X connect 43 0 42 0;
#X connect 44 0 45 0;
#X connect 45 0 12 0;
#X connect 45 0 13 0;
#X connect 46 0 56 0;
#X connect 48 0 52 0;
#X connect 49 0 50 0;
#X connect 50 0 51 0;
#X connect 50 0 53 1;
#X connect 51 0 8 0;
#X connect 52 0 47 0;
#X connect 53 0 48 0;
#X connect 54 0 55 0;
#X connect 55 0 53 0;
#X connect 56 0 49 0;
