#N canvas 755 81 557 579 10;
#X obj 55 612 dac~;
#X floatatom 186 21 5 0 0 0 - - -;
#X floatatom 185 611 5 0 0 0 - - -;
#X obj 185 588 env~ 16384;
#X floatatom 122 444 5 0 0 0 - - -;
#X obj -7 218 noise~;
#X floatatom 138 217 5 0 0 0 - - -;
#X floatatom 81 214 5 0 0 0 - - -;
#X floatatom 139 130 5 0 0 0 - - -;
#X obj 129 107 + 80;
#X obj 128 30 pow 2;
#X obj 129 84 * 11000;
#X obj 40 239 lop~ 3;
#X obj 17 281 vcf~ 11;
#X obj 55 537 *~ 0.8;
#X obj 56 498 *~;
#X obj 217 541 lop~ 3;
#X floatatom 298 546 5 0 0 0 - - -;
#X obj 333 472 expr 1 - $f1;
#X floatatom 320 447 5 0 0 0 - - -;
#X floatatom 343 502 5 0 0 0 - - -;
#X obj 226 480 * 0.93;
#X obj 226 503 + 0.07;
#X obj 66 384 *~;
#X obj 123 289 osc~;
#X obj 224 239 lop~ 3;
#X obj 331 197 expr 1 - $f1;
#X floatatom 318 172 5 0 0 0 - - -;
#X floatatom 341 227 5 0 0 0 - - -;
#X obj 120 342 *~;
#X obj 208 356 lop~ 3;
#X obj 210 330 pow 2;
#X obj 10 384 *~;
#X obj -89 303 r Press;
#X obj -87 367 / 127;
#X obj -87 419 lop~ 3;
#X obj -88 331 expr 127-$f1;
#X obj 224 205 * 12;
#X obj 129 -17 r pedal;
#X obj 226 404 r pedal;
#X obj 226 427 expr 1-$f1;
#X obj 224 129 r pedal;
#X obj 208 279 r pedal;
#X obj 224 152 sqrt;
#X obj 224 173 sqrt;
#X obj 354 46 inlet;
#X obj 354 87 switch~;
#X obj 437 45 r som-set;
#X obj 437 68 == 3;
#X obj 437 91 s nimbus-set;
#X connect 3 0 2 0;
#X connect 4 0 14 1;
#X connect 5 0 13 0;
#X connect 6 0 13 2;
#X connect 7 0 12 0;
#X connect 9 0 7 0;
#X connect 9 0 8 0;
#X connect 10 0 11 0;
#X connect 11 0 9 0;
#X connect 12 0 13 1;
#X connect 13 0 23 0;
#X connect 13 0 32 0;
#X connect 14 0 0 0;
#X connect 14 0 3 0;
#X connect 14 0 0 1;
#X connect 15 0 14 0;
#X connect 16 0 15 1;
#X connect 18 0 20 0;
#X connect 19 0 18 0;
#X connect 19 0 21 1;
#X connect 20 0 22 1;
#X connect 21 0 22 0;
#X connect 22 0 16 0;
#X connect 22 0 17 0;
#X connect 23 0 15 0;
#X connect 24 0 29 0;
#X connect 25 0 24 0;
#X connect 26 0 28 0;
#X connect 27 0 26 0;
#X connect 27 0 37 1;
#X connect 29 0 23 1;
#X connect 30 0 29 1;
#X connect 31 0 30 0;
#X connect 32 0 15 0;
#X connect 33 0 36 0;
#X connect 34 0 35 0;
#X connect 35 0 32 1;
#X connect 36 0 34 0;
#X connect 37 0 25 0;
#X connect 38 0 1 0;
#X connect 38 0 10 0;
#X connect 39 0 40 0;
#X connect 40 0 21 0;
#X connect 41 0 43 0;
#X connect 42 0 31 0;
#X connect 43 0 44 0;
#X connect 44 0 37 0;
#X connect 45 0 46 0;
#X connect 47 0 48 0;
#X connect 48 0 49 0;
