#N canvas 755 81 557 579 10;
#X obj 55 92 dac~;
#X obj 129 -507 r Press;
#X floatatom 186 -469 5 0 0 0 - - -;
#X floatatom 185 91 5 0 0 0 - - -;
#X obj 185 68 env~ 16384;
#X obj 426 -462 vsl 15 128 0 127 0 0 empty empty empty 0 -9 0 10 -262144
-1 -1 0 1;
#X obj 426 -326 s Press;
#X floatatom 122 -76 5 0 0 0 - - -;
#X obj -7 -302 noise~;
#X floatatom 138 -303 5 0 0 0 - - -;
#X floatatom 81 -306 5 0 0 0 - - -;
#X obj 129 -484 / 127;
#X floatatom 139 -390 5 0 0 0 - - -;
#X obj 129 -413 + 80;
#X obj 128 -460 pow 2;
#X obj 129 -436 * 11000;
#X obj 40 -281 lop~ 3;
#X obj 17 -239 vcf~ 11;
#X obj 55 17 *~ 0.8;
#X obj 226 -116 r Press;
#X obj 226 -68 / 127;
#X obj 226 -93 expr 127-$f1;
#X obj 56 -22 *~;
#X obj 217 21 lop~ 3;
#X floatatom 298 26 5 0 0 0 - - -;
#X obj 333 -48 expr 1 - $f1;
#X floatatom 320 -73 5 0 0 0 - - -;
#X floatatom 343 -18 5 0 0 0 - - -;
#X obj 226 -40 * 0.93;
#X obj 226 -17 + 0.07;
#X obj 66 -136 *~;
#X obj 123 -231 osc~;
#X obj 224 -391 r Press;
#X obj 224 -343 / 127;
#X obj 224 -281 lop~ 3;
#X obj 331 -323 expr 1 - $f1;
#X floatatom 318 -348 5 0 0 0 - - -;
#X floatatom 341 -293 5 0 0 0 - - -;
#X obj 120 -178 *~;
#X obj 208 -241 r Press;
#X obj 208 -216 / 127;
#X obj 208 -164 lop~ 3;
#X obj 210 -190 pow 2;
#X obj 10 -136 *~;
#X obj -89 -217 r Press;
#X obj -87 -153 / 127;
#X obj -87 -101 lop~ 3;
#X obj -88 -189 expr 127-$f1;
#X obj 224 -315 * 12;
#X obj 331 -487 r pedal;
#X connect 1 0 2 0;
#X connect 1 0 11 0;
#X connect 4 0 3 0;
#X connect 5 0 6 0;
#X connect 7 0 18 1;
#X connect 8 0 17 0;
#X connect 9 0 17 2;
#X connect 10 0 16 0;
#X connect 11 0 14 0;
#X connect 13 0 10 0;
#X connect 13 0 12 0;
#X connect 14 0 15 0;
#X connect 15 0 13 0;
#X connect 16 0 17 1;
#X connect 17 0 30 0;
#X connect 17 0 43 0;
#X connect 18 0 0 0;
#X connect 18 0 4 0;
#X connect 18 0 0 1;
#X connect 19 0 21 0;
#X connect 20 0 28 0;
#X connect 21 0 20 0;
#X connect 22 0 18 0;
#X connect 23 0 22 1;
#X connect 25 0 27 0;
#X connect 26 0 25 0;
#X connect 26 0 28 1;
#X connect 27 0 29 1;
#X connect 28 0 29 0;
#X connect 29 0 23 0;
#X connect 29 0 24 0;
#X connect 30 0 22 0;
#X connect 31 0 38 0;
#X connect 32 0 33 0;
#X connect 33 0 48 0;
#X connect 34 0 31 0;
#X connect 35 0 37 0;
#X connect 36 0 35 0;
#X connect 36 0 48 1;
#X connect 38 0 30 1;
#X connect 39 0 40 0;
#X connect 40 0 42 0;
#X connect 41 0 38 1;
#X connect 42 0 41 0;
#X connect 43 0 22 0;
#X connect 44 0 47 0;
#X connect 45 0 46 0;
#X connect 46 0 43 1;
#X connect 47 0 45 0;
#X connect 48 0 34 0;
#X connect 49 0 5 0;
