#N canvas 131 122 530 627 10;
#X obj 63 134 serial_print any;
#X msg 69 34 close;
#X obj 106 234 change;
#X floatatom 141 274 5 0 0 0 - - -;
#X obj 115 469 netsend;
#X msg 136 391 connect localhost 6677;
#X msg 116 329 send pedal \$1;
#X msg 177 422 disconnect;
#X obj 262 -67 loadbang;
#X obj 270 35 t b b;
#X obj 295 96 delay 500;
#X obj 63 112 comport 0 9600;
#X msg 123 69 close \, open 0;
#X obj 280 -26 delay 333;
#X obj 110 -64 netreceive 7788;
#X obj 110 -41 route Restart;
#X obj 55 292 f;
#X obj 20 240 metro 70;
#X obj 34 189 loadbang;
#X obj 40 214 tgl 15 0 empty empty empty 17 7 0 10 -262144 -1 -1 1
1;
#X obj 42 326 change;
#X obj 29 366 print PEDAL;
#X connect 0 0 2 0;
#X connect 1 0 11 0;
#X connect 2 0 3 0;
#X connect 2 0 6 0;
#X connect 2 0 16 1;
#X connect 5 0 4 0;
#X connect 6 0 4 0;
#X connect 7 0 4 0;
#X connect 8 0 13 0;
#X connect 9 0 10 0;
#X connect 10 0 5 0;
#X connect 11 0 0 0;
#X connect 12 0 11 0;
#X connect 13 0 9 0;
#X connect 14 0 15 0;
#X connect 15 0 12 0;
#X connect 16 0 20 0;
#X connect 17 0 16 0;
#X connect 18 0 19 0;
#X connect 19 0 17 0;
#X connect 20 0 21 0;
