#N canvas 672 140 530 627 10;
#X obj 63 134 serial_print any;
#X msg 69 34 close;
#X obj 106 234 change;
#X floatatom 141 274 5 0 0 0 - - -;
#X obj 115 469 netsend;
#X msg 136 391 connect localhost 6677;
#X msg 116 329 send pedal \$1;
#X msg 177 422 disconnect;
#X obj 262 -67 loadbang;
#X obj 252 -10 delay 500;
#X obj 63 112 comport 0 9600;
#X msg 123 69 close \, open 0;
#X obj 110 -64 netreceive 7788;
#X obj 110 -41 route Restart;
#X obj 55 292 f;
#X obj 20 240 metro 70;
#X obj 34 189 loadbang;
#X obj 40 214 tgl 15 0 empty empty empty 17 7 0 10 -262144 -1 -1 1
1;
#X obj 42 326 change;
#X obj 29 366 print PEDAL;
#N canvas 1 81 1129 365 GPIO 1;
#X floatatom 104 217 5 0 0 0 - - -;
#X obj 104 195 tgl 15 0 empty empty empty 17 7 0 10 -262144 -1 -1 1
1;
#X floatatom -80 223 5 0 0 0 - - -;
#X obj -80 171 bng 15 250 50 0 empty empty empty 17 7 0 10 -262144
-1 -1;
#X obj -51 158 tgl 15 0 empty empty empty 17 7 0 10 -262144 -1 -1 1
1;
#X obj -51 178 metro 20;
#X obj 104 238 wiringPi_gpio 3 0 0;
#X floatatom 235 222 5 0 0 0 - - -;
#X obj 235 200 tgl 15 0 empty empty empty 17 7 0 10 -262144 -1 -1 0
1;
#X obj 235 243 wiringPi_gpio 4 0 0;
#X floatatom 361 227 5 0 0 0 - - -;
#X obj 361 205 tgl 15 0 empty empty empty 17 7 0 10 -262144 -1 -1 0
1;
#X obj 361 248 wiringPi_gpio 5 0 0;
#X floatatom 497 233 5 0 0 0 - - -;
#X obj 497 211 tgl 15 0 empty empty empty 17 7 0 10 -262144 -1 -1 0
1;
#X obj 497 254 wiringPi_gpio 6 0 0;
#X obj -80 201 wiringPi_gpio 2 1 0;
#X floatatom 631 244 5 0 0 0 - - -;
#X obj 631 203 tgl 15 0 empty empty empty 17 7 0 10 -262144 -1 -1 0
1;
#X obj 631 265 wiringPi_gpio 23 0 0;
#X obj -48 120 loadbang;
#X obj -50 410 hradio 15 1 0 5 empty empty empty 0 -8 0 10 -262144
-1 -1 0;
#X obj -54 283 sel 1;
#X obj -54 306 b;
#X obj -54 329 f;
#X obj -54 352 + 1;
#X obj 1 556 bng 15 250 50 0 empty empty empty 17 7 0 10 -262144 -1
-1;
#X obj -80 245 change;
#X obj -50 430 send Voz;
#X obj 165 13 r Voz;
#X obj 107 158 == 0;
#X obj 188 153 == 1;
#X obj 271 157 == 2;
#X obj 352 152 == 3;
#X obj 451 148 == 4;
#X obj -54 375 mod 5;
#X msg 65 345 0;
#X obj 72 303 loadbang;
#X connect 0 0 6 0;
#X connect 1 0 0 0;
#X connect 2 0 27 0;
#X connect 3 0 16 0;
#X connect 4 0 5 0;
#X connect 5 0 16 0;
#X connect 7 0 9 0;
#X connect 8 0 7 0;
#X connect 10 0 12 0;
#X connect 11 0 10 0;
#X connect 13 0 15 0;
#X connect 14 0 13 0;
#X connect 16 0 2 0;
#X connect 17 0 19 0;
#X connect 18 0 17 0;
#X connect 20 0 4 0;
#X connect 21 0 28 0;
#X connect 22 0 23 0;
#X connect 23 0 24 0;
#X connect 24 0 25 0;
#X connect 25 0 35 0;
#X connect 27 0 22 0;
#X connect 29 0 30 0;
#X connect 29 0 34 0;
#X connect 29 0 33 0;
#X connect 29 0 32 0;
#X connect 29 0 31 0;
#X connect 30 0 1 0;
#X connect 31 0 8 0;
#X connect 32 0 11 0;
#X connect 33 0 14 0;
#X connect 34 0 18 0;
#X connect 35 0 24 1;
#X connect 35 0 21 0;
#X connect 36 0 21 0;
#X connect 37 0 36 0;
#X restore 384 219 pd GPIO;
#X obj 303 287 r Voz;
#X msg 303 310 send Voz \$1;
#X connect 0 0 2 0;
#X connect 1 0 10 0;
#X connect 2 0 3 0;
#X connect 2 0 6 0;
#X connect 2 0 14 1;
#X connect 5 0 4 0;
#X connect 6 0 4 0;
#X connect 7 0 4 0;
#X connect 8 0 9 0;
#X connect 9 0 5 0;
#X connect 10 0 0 0;
#X connect 11 0 10 0;
#X connect 12 0 13 0;
#X connect 13 0 11 0;
#X connect 14 0 18 0;
#X connect 15 0 14 0;
#X connect 16 0 17 0;
#X connect 17 0 15 0;
#X connect 18 0 19 0;
#X connect 21 0 22 0;
#X connect 22 0 4 0;
