#N canvas 131 122 530 627 10;
#X obj 63 134 serial_print any;
#X obj 63 112 comport 0 9600;
#X msg 123 69 open 0;
#X msg 69 34 close;
#X obj 115 218 change;
#X floatatom 65 251 5 0 0 0 - - -;
#X obj 127 377 s pedal;
#X obj 211 43 r pedal;
#X obj 233 257 / 255;
#X obj 233 280 * 127;
#X obj 131 312 / 1023;
#X floatatom 368 250 5 0 0 0 - - -;
#X floatatom 373 180 5 0 0 0 - - -;
#X obj 368 227 / 1023;
#X obj 392 145 bng 15 250 50 0 empty empty empty 17 7 0 10 -262144
-1 -1;
#X connect 0 0 4 0;
#X connect 1 0 0 0;
#X connect 2 0 1 0;
#X connect 3 0 1 0;
#X connect 4 0 5 0;
#X connect 4 0 10 0;
#X connect 7 0 8 0;
#X connect 8 0 9 0;
#X connect 10 0 6 0;
#X connect 12 0 13 0;
#X connect 13 0 11 0;
#X connect 14 0 12 0;
