#N canvas 307 86 316 304 10;
#X obj 63 134 serial_print any;
#X obj 63 112 comport 0 9600;
#X msg 123 69 open 0;
#X msg 69 34 close;
#X obj 63 156 change;
#X floatatom 20 194 5 0 0 0 - - -;
#X obj 75 252 s pedal;
#X obj 211 43 r pedal;
#X obj 162 204 / 255;
#X obj 162 227 * 127;
#X obj 79 187 / 255;
#X obj 79 210 * 127;
#X connect 0 0 4 0;
#X connect 1 0 0 0;
#X connect 2 0 1 0;
#X connect 3 0 1 0;
#X connect 4 0 5 0;
#X connect 4 0 10 0;
#X connect 7 0 8 0;
#X connect 8 0 9 0;
#X connect 10 0 11 0;
#X connect 11 0 6 0;
