#N canvas 718 238 450 300 10;
#X obj 15 159 TOC-TOC;
#X obj 15 142 tgl 15 0 empty toc-toc-set empty 17 7 0 10 -262144 -1
-1 0 1;
#X obj 321 19 vradio 35 1 0 5 som-set som-set-set empty 0 -8 0 10 -262144
-1 -1 2;
#X obj 15 205 POING;
#X obj 15 188 tgl 15 0 empty poing-set empty 17 7 0 10 -262144 -1 -1
0 1;
#X obj 15 251 VENTO;
#X obj 15 234 tgl 15 0 empty vento-set empty 17 7 0 10 -262144 -1 -1
1 1;
#X obj 83 159 NIMBUS;
#X obj 83 142 tgl 15 0 empty nimbus-set empty 17 7 0 10 -262144 -1
-1 0 1;
#X obj 83 206 TRANSPORTER;
#X obj 83 188 tgl 15 0 empty transporter-set empty 17 7 0 10 -262144
-1 -1 0 1;
#X text 359 28 TOC-TOC;
#X text 359 62 POING;
#X text 359 96 VENTO;
#X text 359 132 NIMBUS;
#X text 359 169 TRANSPORTER;
#N canvas 129 264 458 440 Mixer 0;
#X obj 118 31 catch~ som;
#X obj 127 246 s~ SomOut;
#X obj 163 143 limiter~;
#X obj 114 148 z~ 64;
#X obj 127 203 *~;
#X obj 267 220 env~ 128;
#X obj 300 275 vu 15 120 empty empty -1 -8 0 10 -66577 -1 1 0;
#X obj 267 243 - 100;
#X floatatom 191 78 5 0 0 0 - - -;
#X obj 34 233 snapshot~;
#X obj 43 118 tgl 15 0 empty empty empty 17 7 0 10 -262144 -1 -1 1
1;
#X obj 331 77 r~ SomOut;
#X obj 331 100 dac~;
#X obj 32 158 metro 30;
#X obj 34 256 change;
#X obj 34 279 print CLIP;
#X obj 118 54 *~ 3;
#X connect 0 0 16 0;
#X connect 2 0 4 1;
#X connect 2 0 9 0;
#X connect 3 0 4 0;
#X connect 4 0 1 0;
#X connect 4 0 5 0;
#X connect 5 0 7 0;
#X connect 7 0 6 0;
#X connect 8 0 16 1;
#X connect 9 0 14 0;
#X connect 10 0 13 0;
#X connect 11 0 12 0;
#X connect 11 0 12 1;
#X connect 13 0 9 0;
#X connect 14 0 15 0;
#X connect 16 0 3 0;
#X connect 16 0 2 0;
#X restore 86 238 pd Mixer;
#X text 321 245 JACK THE MAKER;
#X text 381 260 2020;
#N canvas 290 383 450 300 PEDAL 0;
#X obj 18 2 netreceive 6677;
#X obj 18 25 route pedal;
#X obj 18 48 t f f;
#X obj 45 94 s pedal;
#X obj 2 218 outlet;
#X obj 45 71 / 1023;
#X obj 197 103 netsend;
#X msg 248 50 connect localhost 7788;
#X msg 197 16 send Restart bang;
#X obj 2 153 f;
#X obj -64 76 tgl 15 0 empty empty empty 17 7 0 10 -262144 -1 -1 1
1;
#X obj -64 100 metro 70;
#X obj -64 49 loadbang;
#X obj 2 176 change;
#X obj 329 149 loadbang;
#X msg 329 203 \; pd dsp 1 \; som-set-set 0;
#X connect 0 0 1 0;
#X connect 1 0 2 0;
#X connect 2 0 9 1;
#X connect 2 1 5 0;
#X connect 5 0 3 0;
#X connect 7 0 6 0;
#X connect 8 0 6 0;
#X connect 9 0 13 0;
#X connect 10 0 11 0;
#X connect 11 0 9 0;
#X connect 12 0 10 0;
#X connect 13 0 4 0;
#X connect 14 0 15 0;
#X restore 217 10 pd PEDAL;
#X obj 217 36 vsl 35 200 0 1023 0 0 empty empty empty 0 -9 0 10 -262144
-1 -1 3774 1;
#X connect 1 0 0 0;
#X connect 4 0 3 0;
#X connect 6 0 5 0;
#X connect 8 0 7 0;
#X connect 10 0 9 0;
#X connect 19 0 20 0;
