#N canvas 755 81 557 579 10;
#X obj 97 22 dac~;
#X obj 129 -507 r Press;
#X floatatom 249 -372 5 0 0 0 - - -;
#X floatatom 227 21 5 0 0 0 - - -;
#X obj 227 -2 env~ 16384;
#X obj 426 -462 vsl 15 128 0 127 0 0 empty empty empty 0 -9 0 10 -262144
-1 -1 2100 1;
#X obj 426 -326 s Press;
#X floatatom 99 -143 5 0 0 0 - - -;
#X obj 18 -241 noise~;
#X floatatom 163 -242 5 0 0 0 - - -;
#X floatatom 106 -245 5 0 0 0 - - -;
#X obj 129 -484 / 127;
#X floatatom 167 -370 5 0 0 0 - - -;
#X obj 129 -413 + 80;
#X obj 128 -460 pow 2;
#X obj 129 -436 * 11000;
#X obj 65 -220 lop~ 3;
#X obj 42 -178 vcf~ 11;
#X obj 97 -53 *~ 0.8;
#X obj 260 -179 r Press;
#X obj 260 -131 / 127;
#X obj 260 -156 expr 127-$f1;
#X obj 33 -89 *~;
#X obj 259 -49 lop~ 3;
#X floatatom 332 -37 5 0 0 0 - - -;
#X obj 367 -111 expr 1 - $f1;
#X floatatom 354 -136 5 0 0 0 - - -;
#X floatatom 377 -81 5 0 0 0 - - -;
#X obj 260 -103 * 0.93;
#X obj 260 -80 + 0.07;
#X connect 1 0 2 0;
#X connect 1 0 11 0;
#X connect 4 0 3 0;
#X connect 5 0 6 0;
#X connect 7 0 18 1;
#X connect 8 0 17 0;
#X connect 9 0 17 2;
#X connect 10 0 16 0;
#X connect 11 0 14 0;
#X connect 13 0 10 0;
#X connect 13 0 12 0;
#X connect 14 0 15 0;
#X connect 15 0 13 0;
#X connect 16 0 17 1;
#X connect 17 0 22 0;
#X connect 18 0 0 0;
#X connect 18 0 4 0;
#X connect 18 0 0 1;
#X connect 19 0 21 0;
#X connect 20 0 28 0;
#X connect 21 0 20 0;
#X connect 22 0 18 0;
#X connect 23 0 22 1;
#X connect 25 0 27 0;
#X connect 26 0 25 0;
#X connect 26 0 28 1;
#X connect 27 0 29 1;
#X connect 28 0 29 0;
#X connect 29 0 23 0;
#X connect 29 0 24 0;
