#N canvas 777 137 557 579 10;
#X obj 5 161 hip~ 200;
#X obj 5 44 *~ 0.1;
#X obj 5 67 sqrt~;
#X obj 21 290 dac~;
#X obj 5 -98 vline~;
#X obj 5 -32 cos~;
#X obj 5 -10 lop~ 0.1;
#X obj 5 -54 -~ 0.25;
#X obj 5 -76 *~ 0.5;
#X obj 5 12 *~ 5;
#X text 76 -120 press repeatedly;
#N canvas 216 81 442 334 regular-roll 1;
#X obj 74 193 rzero~ 0.9;
#X obj -2 66 phasor~ 1;
#X obj -2 139 wrap~;
#X obj 51 139 wrap~;
#X obj 102 139 wrap~;
#X obj 155 138 wrap~;
#X obj 68 66 unpack f f f f f f f f;
#X msg 89 44 2 0.1 3 0.05 4.2 0.02 5.6 0.012;
#X msg 107 23 1.3 0.1 1.7 0.05 2.4 0.02 8.1 0.012;
#X obj 89 -2 loadbang;
#X text 179 2 roll pattern;
#X obj 74 216 outlet~;
#X obj -2 -2 inlet~ speed;
#X obj -2 119 *~;
#X obj 51 119 *~;
#X obj 102 119 *~;
#X obj 155 118 *~;
#X obj -2 160 *~;
#X obj 51 160 *~;
#X obj 102 160 *~;
#X obj 155 160 *~;
#X connect 0 0 11 0;
#X connect 1 0 13 0;
#X connect 1 0 14 0;
#X connect 1 0 15 0;
#X connect 1 0 16 0;
#X connect 2 0 17 0;
#X connect 3 0 18 0;
#X connect 4 0 19 0;
#X connect 5 0 20 0;
#X connect 6 0 13 1;
#X connect 6 1 17 1;
#X connect 6 2 14 1;
#X connect 6 3 18 1;
#X connect 6 4 15 1;
#X connect 6 5 19 1;
#X connect 6 6 16 1;
#X connect 6 7 20 1;
#X connect 7 0 6 0;
#X connect 8 0 6 0;
#X connect 9 0 7 0;
#X connect 12 0 1 0;
#X connect 13 0 2 0;
#X connect 14 0 3 0;
#X connect 15 0 4 0;
#X connect 16 0 5 0;
#X connect 17 0 0 0;
#X connect 18 0 0 0;
#X connect 19 0 0 0;
#X connect 20 0 0 0;
#X restore 58 45 pd regular-roll;
#N canvas 134 269 414 498 irregular-ground 1;
#X obj 18 -50 noise~;
#X obj 18 -13 max~ 0;
#X msg 938 99 0.54;
#X obj 19 109 samphold~;
#X obj 19 132 rzero~ 0.99;
#X obj 20 208 outlet~;
#X obj 141 6 phasor~ 12;
#X obj 76 56 +~;
#X obj 76 9 *~ 0.001;
#X obj 19 182 *~;
#X obj 142 -23 *~ 100;
#X obj 142 -70 inlet~ speed;
#X obj 19 155 *~ 0.05;
#X connect 0 0 1 0;
#X connect 0 0 8 0;
#X connect 1 0 3 0;
#X connect 3 0 4 0;
#X connect 4 0 12 0;
#X connect 6 0 7 1;
#X connect 7 0 3 1;
#X connect 8 0 7 0;
#X connect 9 0 5 0;
#X connect 10 0 6 0;
#X connect 11 0 10 0;
#X connect 11 0 9 1;
#X connect 12 0 9 0;
#X restore 58 102 pd irregular-ground;
#X obj 5 138 *~;
#X obj 58 77 *~ 0.5;
#N canvas 229 296 483 426 tincan 0;
#X obj 76 190 *~ 1000;
#X obj 76 232 *~ 0.4;
#X obj -2 0 inlet~;
#X obj 94 1 loadbang;
#X obj 76 253 outlet~;
#X obj 76 211 clip~ -0.6 0.6;
#X msg 94 23 359 426 1748 3000 123;
#X obj 94 45 unpack f f f f f;
#X obj -2 135 bp~ 1 1;
#X obj 76 135 bp~ 1 1;
#X obj 138 135 bp~ 1 1;
#X obj 213 136 bp~ 1 1;
#X obj 76 157 *~ 0.3;
#X obj 143 157 *~ 0.2;
#X obj 213 157 *~ 0.2;
#X obj -2 158 *~ 0.4;
#X obj 273 102 * 1.1866;
#X obj 340 129 * 4.8691;
#X obj 405 129 * 8.3565;
#X floatatom 334 40 12 0 0 0 - - -;
#X obj 334 -39 r Press;
#X obj 334 7 + 200;
#X obj 334 -16 * 4;
#X connect 0 0 5 0;
#X connect 1 0 4 0;
#X connect 2 0 8 0;
#X connect 2 0 9 0;
#X connect 2 0 10 0;
#X connect 2 0 11 0;
#X connect 3 0 6 0;
#X connect 5 0 1 0;
#X connect 6 0 7 0;
#X connect 7 0 8 1;
#X connect 7 1 9 1;
#X connect 7 2 10 1;
#X connect 7 3 11 1;
#X connect 7 4 9 2;
#X connect 7 4 8 2;
#X connect 7 4 10 2;
#X connect 7 4 11 2;
#X connect 8 0 15 0;
#X connect 9 0 12 0;
#X connect 10 0 13 0;
#X connect 11 0 14 0;
#X connect 12 0 0 0;
#X connect 13 0 0 0;
#X connect 14 0 0 0;
#X connect 15 0 0 0;
#X connect 16 0 9 1;
#X connect 17 0 10 1;
#X connect 18 0 11 1;
#X connect 19 0 8 1;
#X connect 19 0 16 0;
#X connect 19 0 17 0;
#X connect 19 0 18 0;
#X connect 20 0 22 0;
#X connect 21 0 19 0;
#X connect 22 0 21 0;
#X coords 0 0 1 1 240 160 0;
#X restore 14 188 pd tincan;
#X obj 139 -446 tgl 15 0 empty empty empty 17 7 0 10 -262144 -1 -1
1 1;
#X floatatom 129 -228 5 0 0 0 - - -;
#X obj 85 -197 metro 500;
#X obj 195 -431 expr 127 - $f1;
#X obj 186 -398 / 127;
#X obj 186 -472 r Press;
#X obj 282 -293 vsl 15 128 0 1 0 0 empty empty empty 0 -9 0 10 -262144
-1 -1 3419 1;
#X obj 186 -375 pow 16;
#X obj 129 -507 r Press;
#X obj 136 -481 > 1;
#X obj 139 -426 change;
#X floatatom 249 -372 5 0 0 0 - - -;
#X floatatom 151 289 5 0 0 0 - - -;
#X obj 151 266 env~ 16384;
#X msg 5 -119 0 \, 1 500;
#X obj 177 -278 + 800;
#X obj 177 -301 * 3200;
#X obj 426 -462 vsl 15 128 0 127 0 0 empty empty empty 0 -9 0 10 -262144
-1 -1 1000 1;
#X obj 426 -326 s Press;
#X obj 21 215 *~ 1;
#X floatatom 86 206 5 0 0 0 - - -;
#X connect 0 0 15 0;
#X connect 1 0 2 0;
#X connect 2 0 13 0;
#X connect 4 0 8 0;
#X connect 5 0 6 0;
#X connect 6 0 9 0;
#X connect 7 0 5 0;
#X connect 8 0 7 0;
#X connect 9 0 1 0;
#X connect 9 0 11 0;
#X connect 9 0 14 0;
#X connect 11 0 13 1;
#X connect 12 0 13 1;
#X connect 13 0 0 0;
#X connect 14 0 12 0;
#X connect 15 0 35 0;
#X connect 16 0 26 0;
#X connect 17 0 18 1;
#X connect 18 0 30 0;
#X connect 19 0 20 0;
#X connect 20 0 23 0;
#X connect 21 0 19 0;
#X connect 23 0 22 0;
#X connect 23 0 32 0;
#X connect 24 0 25 0;
#X connect 25 0 16 0;
#X connect 26 0 18 0;
#X connect 27 0 23 1;
#X connect 29 0 28 0;
#X connect 30 0 4 0;
#X connect 31 0 17 0;
#X connect 32 0 31 0;
#X connect 33 0 34 0;
#X connect 35 0 3 0;
#X connect 35 0 29 0;
#X connect 35 0 3 1;
#X connect 36 0 35 1;
