#N canvas 193 184 862 565 10;
#X obj 12 334 hip~ 200;
#N canvas 798 183 483 426 tincan 1;
#X obj 76 190 *~ 1000;
#X obj 76 232 *~ 0.4;
#X obj -2 0 inlet~;
#X obj 94 1 loadbang;
#X obj 76 253 outlet~;
#X obj 76 211 clip~ -0.6 0.6;
#X msg 94 23 359 426 1748 3000 123;
#X obj 94 45 unpack f f f f f;
#X obj -2 135 bp~ 1 1;
#X obj 76 135 bp~ 1 1;
#X obj 138 135 bp~ 1 1;
#X obj 213 136 bp~ 1 1;
#X obj 76 157 *~ 0.3;
#X obj 143 157 *~ 0.2;
#X obj 213 157 *~ 0.2;
#X obj -2 158 *~ 0.4;
#X obj 273 102 * 1.1866;
#X obj 340 129 * 4.8691;
#X obj 405 129 * 8.3565;
#X floatatom 334 40 12 0 0 0 - - -;
#X obj 334 -39 r Press;
#X obj 334 7 + 300;
#X obj 334 -16 * 5;
#X connect 0 0 5 0;
#X connect 1 0 4 0;
#X connect 2 0 8 0;
#X connect 2 0 9 0;
#X connect 2 0 10 0;
#X connect 2 0 11 0;
#X connect 3 0 6 0;
#X connect 5 0 1 0;
#X connect 6 0 7 0;
#X connect 7 0 8 1;
#X connect 7 1 9 1;
#X connect 7 2 10 1;
#X connect 7 3 11 1;
#X connect 7 4 9 2;
#X connect 7 4 8 2;
#X connect 7 4 10 2;
#X connect 7 4 11 2;
#X connect 8 0 15 0;
#X connect 9 0 12 0;
#X connect 10 0 13 0;
#X connect 11 0 14 0;
#X connect 12 0 0 0;
#X connect 13 0 0 0;
#X connect 14 0 0 0;
#X connect 15 0 0 0;
#X connect 16 0 9 1;
#X connect 17 0 10 1;
#X connect 18 0 11 1;
#X connect 19 0 8 1;
#X connect 19 0 16 0;
#X connect 19 0 17 0;
#X connect 19 0 18 0;
#X connect 20 0 22 0;
#X connect 21 0 19 0;
#X connect 22 0 21 0;
#X coords 0 0 1 1 240 160 0;
#X restore 12 357 pd tincan;
#X obj 12 383 dac~;
#X obj 12 268 vline~;
#X obj 12 291 *~;
#X obj 12 313 *~ 0.05;
#X msg 12 245 1 \, 0 2;
#X floatatom 64 166 12 0 0 0 - - -;
#X obj 402 32 vsl 15 128 0 127 0 0 empty empty empty 0 -9 0 10 -262144
-1 -1 0 1;
#X obj 402 168 s Press;
#X obj 20 197 metro 500;
#X obj 175 -97 expr 127 - $f1;
#X obj 166 -64 / 127;
#X obj 166 -138 r Press;
#X obj 354 28 vsl 15 128 0 1 0 0 empty empty empty 0 -9 0 10 -262144
-1 -1 12700 1;
#X floatatom 229 -38 5 0 0 0 - - -;
#X obj 403 -43 r pedal;
#X obj 166 -41 pow 4;
#X obj 32 -86 loadbang;
#X obj 52 -40 tgl 15 0 empty empty empty 17 7 0 10 -262144 -1 -1 1
1;
#X floatatom 231 57 12 0 0 0 - - -;
#X floatatom 136 220 12 0 0 0 - - -;
#X obj 119 15 - 0.0634862;
#X obj 119 38 max 0;
#X floatatom 209 134 5 0 0 0 - - -;
#X floatatom 72 102 5 0 0 0 - - -;
#X obj 160 110 + 20;
#X obj 160 87 * 800;
#X connect 0 0 1 0;
#X connect 1 0 2 0;
#X connect 1 0 2 1;
#X connect 3 0 4 0;
#X connect 3 0 4 1;
#X connect 4 0 5 0;
#X connect 5 0 0 0;
#X connect 6 0 3 0;
#X connect 7 0 10 1;
#X connect 8 0 9 0;
#X connect 10 0 6 0;
#X connect 11 0 12 0;
#X connect 12 0 17 0;
#X connect 13 0 11 0;
#X connect 15 0 17 1;
#X connect 16 0 8 0;
#X connect 17 0 14 0;
#X connect 17 0 20 0;
#X connect 17 0 22 0;
#X connect 18 0 19 0;
#X connect 19 0 10 0;
#X connect 22 0 23 0;
#X connect 23 0 27 0;
#X connect 24 0 26 1;
#X connect 26 0 7 0;
#X connect 26 0 21 0;
#X connect 27 0 26 0;
