#N canvas 681 148 557 579 10;
#X floatatom 249 148 5 0 0 0 - - -;
#X floatatom 80 569 5 0 0 0 - - -;
#X obj 18 279 noise~;
#X floatatom 163 278 5 0 0 0 - - -;
#X floatatom 106 275 5 0 0 0 - - -;
#X floatatom 167 150 5 0 0 0 - - -;
#X obj 129 107 + 80;
#X obj 128 60 pow 2;
#X obj 129 84 * 11000;
#X obj 65 300 lop~ 3;
#X obj 42 342 vcf~ 11;
#X obj 42 607 *~ 0.8;
#X obj 41 571 *~;
#X obj 145 471 lop~ 3;
#X floatatom 195 468 5 0 0 0 - - -;
#X obj 239 409 expr 1 - $f1;
#X floatatom 239 384 5 0 0 0 - - -;
#X floatatom 239 439 5 0 0 0 - - -;
#X obj 145 417 * 0.93;
#X obj 145 440 + 0.07;
#X obj 354 46 inlet;
#X obj 354 87 switch~;
#X obj 437 45 r som-set;
#X obj 437 68 == 2;
#X obj 437 91 s vento-set;
#X obj 128 13 r pedal;
#X obj 145 341 r pedal;
#X obj 145 364 expr 1-$f1;
#X obj 119 736 throw~ som;
#X connect 1 0 11 1;
#X connect 2 0 10 0;
#X connect 3 0 10 2;
#X connect 4 0 9 0;
#X connect 6 0 4 0;
#X connect 6 0 5 0;
#X connect 7 0 8 0;
#X connect 8 0 6 0;
#X connect 9 0 10 1;
#X connect 10 0 12 0;
#X connect 11 0 28 0;
#X connect 12 0 11 0;
#X connect 13 0 12 1;
#X connect 15 0 17 0;
#X connect 16 0 15 0;
#X connect 16 0 18 1;
#X connect 17 0 19 1;
#X connect 18 0 19 0;
#X connect 19 0 13 0;
#X connect 19 0 14 0;
#X connect 20 0 21 0;
#X connect 22 0 23 0;
#X connect 23 0 24 0;
#X connect 25 0 0 0;
#X connect 25 0 7 0;
#X connect 26 0 27 0;
#X connect 27 0 18 0;
